#!OML:ASF X:\für Bonn\!DataBase\2005_08_11_Bastian_Final\c3d\Bastian.ASF
:FULLY-SPECIFIED
:DEGREES
113
root -1.15571 17.3157 -5.25467 148.2 23.1654 -186.967
lowerback 26.8122 0.855235 3.11669
upperback 13.1759 4.92257 -3.94815
thorax 0.538447 4.20432 -7.34471
lowerneck -10.6615 -0.360435 -5.80559
upperneck -5.75149 0.764579 2.93945
head -0.0349079 0.757633 1.94379
rclavicle 2.63887e-014 -1.47101e-014
rhumerus -58.6441 16.338 -101.688
rradius 111.051
rwrist 8.26167
rhand -16.6855 14.7712
rfingers 7.12502
rthumb 9.53884 -14.9929
lclavicle 2.63887e-014 -1.47101e-014
lhumerus -45.1343 0.51336 87.9967
lradius 29.7682
lwrist 30.0256
lhand -2.30442 -9.46731
lfingers 7.12502
lthumb 23.3814 19.1324
rfemur 23.1531 4.31157 21.9023
rtibia 34.2641
rfoot -196.642 -186.245
rtoes 1.1966
lfemur -65.6797 32.7722 -14.9953
ltibia 105.871
lfoot 0.450525 -4.0309
ltoes -36.4561
114
root -1.16479 17.2981 -5.25691 149.515 23.2451 -186.403
lowerback 25.7945 0.776063 3.50442
upperback 12.7317 4.63466 -3.70384
thorax 0.467312 3.93885 -7.16847
lowerneck -10.5525 -0.239634 -5.84055
upperneck -5.6335 0.903138 3.04582
head -0.0220147 0.817368 1.98943
rclavicle 5.87906e-014 2.54444e-014
rhumerus -59.0286 16.4527 -101.628
rradius 110.981
rwrist 7.72075
rhand -16.7672 14.5094
rfingers 7.12502
rthumb 9.45995 -15.2583
lclavicle 5.87906e-014 2.54444e-014
lhumerus -44.4885 0.897769 86.8306
lradius 30.4562
lwrist 30.4849
lhand -3.15707 -9.73824
lfingers 7.12502
lthumb 22.5632 18.9632
rfemur 22.0722 4.06646 22.206
rtibia 34.1967
rfoot -197.311 -186.078
rtoes 2.12527
lfemur -63.4683 32.4606 -14.3731
ltibia 106.337
lfoot -0.099046 -3.9479
ltoes -36.1962
115
root -1.17461 17.2775 -5.26102 150.696 23.3339 -185.82
lowerback 24.8984 0.685675 3.88143
upperback 12.325 4.35803 -3.43306
thorax 0.390893 3.69273 -6.97342
lowerneck -10.4569 -0.116009 -5.89308
upperneck -5.54005 1.0516 3.14218
head -0.0154624 0.884155 2.03517
rclavicle -6.68413e-014 2.64384e-014
rhumerus -59.3571 16.6218 -101.523
rradius 110.979
rwrist 7.24073
rhand -16.7338 14.1672
rfingers 7.12502
rthumb 9.49221 -15.599
lclavicle -6.68413e-014 2.64384e-014
lhumerus -43.8686 1.14539 85.8335
lradius 31.2456
lwrist 31.1593
lhand -4.08735 -9.9897
lfingers 7.12502
lthumb 21.6701 18.8176
rfemur 21.1432 3.85151 22.5879
rtibia 34.1501
rfoot -197.957 -185.984
rtoes 2.91074
lfemur -61.0587 32.0661 -13.6196
ltibia 106.662
lfoot -0.508197 -3.84874
ltoes -35.6891
116
root -1.18357 17.2602 -5.26601 151.779 23.4407 -185.248
lowerback 24.0875 0.609128 4.25349
upperback 11.9252 4.11573 -3.17625
thorax 0.297252 3.47363 -6.81031
lowerneck -10.368 0.00268048 -5.88849
upperneck -5.41637 1.18586 3.24876
head 0.0024326 0.941968 2.07375
rclavicle -2.13197e-014 9.93923e-016
rhumerus -59.6184 16.7052 -101.38
rradius 111.008
rwrist 6.86742
rhand -16.5239 13.8782
rfingers 7.12502
rthumb 9.69467 -15.8787
lclavicle -2.13197e-014 9.93923e-016
lhumerus -43.2795 1.25092 84.9221
lradius 32.1094
lwrist 31.9267
lhand -5.07038 -10.2397
lfingers 7.12502
lthumb 20.7258 18.6735
rfemur 20.4618 3.6427 22.9924
rtibia 33.7627
rfoot -198.369 -185.966
rtoes 3.23244
lfemur -58.5185 31.5518 -12.7974
ltibia 106.782
lfoot -0.672322 -3.65976
ltoes -35.0718
117
root -1.19192 17.2496 -5.27118 152.837 23.545 -184.667
lowerback 23.2769 0.534727 4.5985
upperback 11.552 3.883 -2.90065
thorax 0.238912 3.26696 -6.61578
lowerneck -10.3077 0.10805 -5.92313
upperneck -5.33122 1.31402 3.3666
head 0.0127985 1.00045 2.12302
rclavicle -8.69683e-016 1.73937e-014
rhumerus -59.8028 16.8339 -101.181
rradius 111.08
rwrist 6.62401
rhand -16.2764 13.52
rfingers 7.12502
rthumb 9.93348 -16.2256
lclavicle -8.69683e-016 1.73937e-014
lhumerus -42.6918 1.28629 84.1303
lradius 33.0928
lwrist 32.8014
lhand -5.96853 -10.4201
lfingers 7.12502
lthumb 19.8626 18.5849
rfemur 19.8719 3.46225 23.4587
rtibia 33.2623
rfoot -198.631 -186.068
rtoes 3.23067
lfemur -55.9564 30.8559 -11.9617
ltibia 106.734
lfoot -0.807905 -3.39558
ltoes -34.816
